<svg xmlns="http://www.w3.org/2000/svg" viewBox="0 0 2596.5 514">
  <g id="Group_2" data-name="Group 2" transform="translate(-756 195)" fill="#60a5fa" stroke="#60a5fa">
    <g id="Group_1" data-name="Group 1" transform="translate(756.776 445.537)">
      <path id="Path_1" data-name="Path 1" d="M0,0S78.68,86.813,157.236,86.813,314.224,0,314.224,0s-88.091,79.027-88.091,157.583,88.091,156.641,88.091,156.641-78.432-86.866-156.988-86.866S0,314.224,0,314.224s86.964-78.085,86.964-156.641S0,0,0,0Z" transform="translate(98.973 -541.089)"/>
      <path id="Union_1" data-name="Union 1" d="M79.847,197.968a99.456,99.456,0,0,1-35.758-15.047,100.291,100.291,0,0,1-36.231-44,99.471,99.471,0,0,1-5.827-18.771,100.975,100.975,0,0,1,0-40.307A99.462,99.462,0,0,1,17.078,44.089a100.293,100.293,0,0,1,44-36.23A99.488,99.488,0,0,1,79.847,2.032a100.83,100.83,0,0,1,46.316,1.426V15.58a88.365,88.365,0,0,0-69.384,7.356L100,100,17.654,67.918A88.356,88.356,0,0,0,143.221,177.064L100,100l82.346,32.082A88.506,88.506,0,0,0,185,75.775h12.048a100.089,100.089,0,0,1-117.2,122.193Z" transform="translate(-0.776 -326.537)"/>
      <path id="Union_4" data-name="Union 4" d="M79.847,197.968a99.456,99.456,0,0,1-35.758-15.047,100.291,100.291,0,0,1-36.231-44,99.471,99.471,0,0,1-5.827-18.771,100.975,100.975,0,0,1,0-40.307A99.462,99.462,0,0,1,17.078,44.089a100.293,100.293,0,0,1,44-36.23A99.488,99.488,0,0,1,79.847,2.032a100.83,100.83,0,0,1,46.316,1.426V15.58a88.365,88.365,0,0,0-69.384,7.356L100,100,17.654,67.918A88.356,88.356,0,0,0,143.221,177.064L100,100l82.346,32.082A88.506,88.506,0,0,0,185,75.775h12.048a100.089,100.089,0,0,1-117.2,122.193Z" transform="translate(313.224 -126.537) rotate(-90)"/>
      <path id="Union_2" data-name="Union 2" d="M79.847,197.968a99.456,99.456,0,0,1-35.758-15.047,100.291,100.291,0,0,1-36.231-44,99.471,99.471,0,0,1-5.827-18.771,100.975,100.975,0,0,1,0-40.307A99.462,99.462,0,0,1,17.078,44.089a100.293,100.293,0,0,1,44-36.23A99.488,99.488,0,0,1,79.847,2.032a100.83,100.83,0,0,1,46.316,1.426V15.58a88.365,88.365,0,0,0-69.384,7.356L100,100,17.654,67.918A88.356,88.356,0,0,0,143.221,177.064L100,100l82.346,32.082A88.506,88.506,0,0,0,185,75.775h12.048a100.089,100.089,0,0,1-117.2,122.193Z" transform="translate(199.224 -640.537) rotate(90)"/>
      <path id="Union_3" data-name="Union 3" d="M79.847,197.968a99.456,99.456,0,0,1-35.758-15.047,100.291,100.291,0,0,1-36.231-44,99.471,99.471,0,0,1-5.827-18.771,100.975,100.975,0,0,1,0-40.307A99.462,99.462,0,0,1,17.078,44.089a100.293,100.293,0,0,1,44-36.23A99.488,99.488,0,0,1,79.847,2.032a100.83,100.83,0,0,1,46.316,1.426V15.58a88.365,88.365,0,0,0-69.384,7.356L100,100,17.654,67.918A88.356,88.356,0,0,0,143.221,177.064L100,100l82.346,32.082A88.506,88.506,0,0,0,185,75.775h12.048a100.089,100.089,0,0,1-117.2,122.193Z" transform="translate(513.224 -440.537) rotate(180)"/>
    </g>
    <path id="Subtraction_9" data-name="Subtraction 9" d="M1856,359.5a205.552,205.552,0,0,1-36.5-3.125A161.968,161.968,0,0,1,1787,347a121.613,121.613,0,0,1-27.437-15.5A107.436,107.436,0,0,1,1738.25,310a93.233,93.233,0,0,1-8.047-12.874A95.455,95.455,0,0,1,1724.313,283a105.3,105.3,0,0,1-3.734-15.375A123.739,123.739,0,0,1,1719,251h91a55.26,55.26,0,0,0,4.375,17.187,37.312,37.312,0,0,0,9.125,12.562,38.469,38.469,0,0,0,13.25,7.688A51.836,51.836,0,0,0,1853.5,291a61.019,61.019,0,0,0,17-2.188,37.658,37.658,0,0,0,13-6.562,28.141,28.141,0,0,0,8.25-10.438A33.239,33.239,0,0,0,1894.5,258a31.376,31.376,0,0,0-2.187-11.874,28.215,28.215,0,0,0-6.563-9.624,64.549,64.549,0,0,0-9.75-7.751,78.736,78.736,0,0,0-11.75-6.249c-8.463-3.651-20.659-7.857-36.249-12.5-11.283-3.485-21.671-7.018-30.875-10.5s-17.5-7.02-24.625-10.5a98.51,98.51,0,0,1-20-13,110.018,110.018,0,0,1-17-18,68.369,68.369,0,0,1-6.781-11.031,77.4,77.4,0,0,1-4.844-12.594A107.76,107.76,0,0,1,1720,104.5a116.851,116.851,0,0,1,2.219-23.172,93.1,93.1,0,0,1,6.656-20.516,86.207,86.207,0,0,1,11.094-17.859,95.167,95.167,0,0,1,15.531-15.2,117.964,117.964,0,0,1,19.094-12.14,131.177,131.177,0,0,1,21.782-8.672,159.316,159.316,0,0,1,24.468-5.2A204.89,204.89,0,0,1,1848,0a211.189,211.189,0,0,1,27.594,1.734,162.315,162.315,0,0,1,24.781,5.2,131.835,131.835,0,0,1,21.969,8.672A116.773,116.773,0,0,1,1941.5,27.75a99.872,99.872,0,0,1,15.687,15.234,93.052,93.052,0,0,1,11.563,17.953,101.272,101.272,0,0,1,7.437,20.672A125.725,125.725,0,0,1,1979.5,105H1887a41.5,41.5,0,0,0-3.625-15.187A33.887,33.887,0,0,0,1874.5,78.25a39.192,39.192,0,0,0-13.125-7.312A52.212,52.212,0,0,0,1845,68.5a44.716,44.716,0,0,0-14,2.063,31.88,31.88,0,0,0-11,6.188,25.949,25.949,0,0,0-7.125,10.062A36.823,36.823,0,0,0,1810.5,100.5a31.467,31.467,0,0,0,1,8.032,27.164,27.164,0,0,0,3,7.094,33.837,33.837,0,0,0,12,11.375,159.971,159.971,0,0,0,20.5,9.875c8.291,3.4,18.216,6.974,29.5,10.625,22.556,7.628,41.144,15.03,55.25,22a101.413,101.413,0,0,1,19.813,12.875A112.207,112.207,0,0,1,1968.5,200a67.328,67.328,0,0,1,6.781,10.719,73.893,73.893,0,0,1,4.843,12.156A99.549,99.549,0,0,1,1984,251.5a106.249,106.249,0,0,1-3.812,28.626A99.6,99.6,0,0,1,1950.063,328a119.256,119.256,0,0,1-25.563,17,124.646,124.646,0,0,1-15.156,6.344,140.1,140.1,0,0,1-16.469,4.531A178.776,178.776,0,0,1,1856,359.5Zm-1000.5,0a202.308,202.308,0,0,1-24.234-1.437,185.71,185.71,0,0,1-23.2-4.313,178.961,178.961,0,0,1-22.172-7.187,181.328,181.328,0,0,1-21.14-10.062,177.748,177.748,0,0,1-19.562-12.641,169.59,169.59,0,0,1-32.75-32.126A183.264,183.264,0,0,1,699.25,272.25a171.831,171.831,0,0,1-18.188-43.813,184.01,184.01,0,0,1-4.547-23.828,208.6,208.6,0,0,1,0-50.2,183,183,0,0,1,4.547-23.781A169.95,169.95,0,0,1,699.25,87a182.8,182.8,0,0,1,13.188-19.375,170.174,170.174,0,0,1,32.75-32A179.031,179.031,0,0,1,764.751,23a181.511,181.511,0,0,1,21.14-10.063A179.122,179.122,0,0,1,808.062,5.75a185.71,185.71,0,0,1,23.2-4.313,205.032,205.032,0,0,1,48.469,0,185.678,185.678,0,0,1,23.2,4.313,179.013,179.013,0,0,1,22.172,7.187A181.543,181.543,0,0,1,946.25,23a176.769,176.769,0,0,1,19.532,12.625,166.519,166.519,0,0,1,32.5,32A178.184,178.184,0,0,1,1011.251,87a172.418,172.418,0,0,1,10.391,21.157,174.354,174.354,0,0,1,7.422,22.469,186.4,186.4,0,0,1,4.453,23.781,211.883,211.883,0,0,1-.016,50.2,185.682,185.682,0,0,1-4.5,23.828,172.74,172.74,0,0,1-18,43.813,182.187,182.187,0,0,1-13.062,19.484,170.816,170.816,0,0,1-15.187,17.2,168.912,168.912,0,0,1-17.312,14.922A176.22,176.22,0,0,1,946,336.5a179.189,179.189,0,0,1-21.031,10.062,177.2,177.2,0,0,1-22.094,7.188,184.621,184.621,0,0,1-23.156,4.313A201.935,201.935,0,0,1,855.5,359.5Zm0-282a114.225,114.225,0,0,0-20.172,1.719,90.663,90.663,0,0,0-18.015,5.156,80.967,80.967,0,0,0-15.86,8.593A83.682,83.682,0,0,0,787.75,105,87.446,87.446,0,0,0,776.7,119.968a94.8,94.8,0,0,0-7.891,17.406,115.145,115.145,0,0,0-4.734,19.844A150.991,150.991,0,0,0,762.5,179.5a148.505,148.505,0,0,0,1.579,22.078,114.653,114.653,0,0,0,4.734,19.735A95.614,95.614,0,0,0,776.7,238.7,89.353,89.353,0,0,0,787.75,253.75a83.91,83.91,0,0,0,13.7,12.141,80.7,80.7,0,0,0,15.86,8.671,90.077,90.077,0,0,0,18.015,5.2A113.227,113.227,0,0,0,855.5,281.5a109.969,109.969,0,0,0,19.953-1.75,88.407,88.407,0,0,0,17.859-5.25,80.371,80.371,0,0,0,15.765-8.751A84.785,84.785,0,0,0,922.75,253.5,91.156,91.156,0,0,0,933.8,238.375,96.323,96.323,0,0,0,941.688,221a113.979,113.979,0,0,0,4.734-19.626A146.055,146.055,0,0,0,948,179.5a148.525,148.525,0,0,0-1.578-22.078,114.54,114.54,0,0,0-4.734-19.734A95.62,95.62,0,0,0,933.8,120.3,89.292,89.292,0,0,0,922.75,105.25a84.585,84.585,0,0,0-13.672-12.141,80.591,80.591,0,0,0-15.765-8.672,89,89,0,0,0-17.859-5.2A110.929,110.929,0,0,0,855.5,77.5ZM639,356h0l-96.5,0-73-132.5H449V356H363.5V163H502a66.708,66.708,0,0,0,20.563-2.876A37.191,37.191,0,0,0,537.25,151.5a36.611,36.611,0,0,0,8.812-13.874A54.854,54.854,0,0,0,549,119a51.125,51.125,0,0,0-2.937-17.875,36.031,36.031,0,0,0-23.5-22.25A66.717,66.717,0,0,0,502,76H363.5V5H507a192.4,192.4,0,0,1,38.437,3.625,143.476,143.476,0,0,1,16.922,4.531A123.357,123.357,0,0,1,577.75,19.5a120.76,120.76,0,0,1,13.7,7.922,103.9,103.9,0,0,1,11.859,9.266A94.748,94.748,0,0,1,613.328,47.3,92.609,92.609,0,0,1,621.5,59.25a107.444,107.444,0,0,1,10.875,26.688A118.54,118.54,0,0,1,636,115.5a115.811,115.811,0,0,1-1.235,17.031,104.9,104.9,0,0,1-3.7,16.094,102.066,102.066,0,0,1-6.172,15.156A107.187,107.187,0,0,1,616.251,178,92.937,92.937,0,0,1,605.2,190.75a98.064,98.064,0,0,1-13.391,10.75,113.012,113.012,0,0,1-15.735,8.75A139.024,139.024,0,0,1,558,217l81,139Zm1034.5,0h-215V145h200v65.5H1544v77h129.5V356h0Zm-277,0H1311L1168,139.5V356h-85.5V5H1168l143,217.5V5h85.5Zm-1265,0H0V5H131.5a256.57,256.57,0,0,1,26.875,1.375A217.573,217.573,0,0,1,183.5,10.5a190.747,190.747,0,0,1,23.375,6.875A174.744,174.744,0,0,1,228.5,27,170.847,170.847,0,0,1,248.078,39.11a157.632,157.632,0,0,1,17.235,14.327A154.512,154.512,0,0,1,280.2,69.984,161.046,161.046,0,0,1,292.75,88.75a163.632,163.632,0,0,1,9.953,20.641,171.779,171.779,0,0,1,7.11,22.172,189.934,189.934,0,0,1,4.265,23.7A219.628,219.628,0,0,1,315.5,180.5a216.459,216.459,0,0,1-1.422,25.031,189.253,189.253,0,0,1-4.265,23.594,173.137,173.137,0,0,1-7.11,22.156A166.867,166.867,0,0,1,292.75,272a160.432,160.432,0,0,1-12.562,18.875A153.516,153.516,0,0,1,265.25,307.5a156.817,156.817,0,0,1-17.312,14.375A170.067,170.067,0,0,1,228.251,334a177.912,177.912,0,0,1-21.7,9.625,191.948,191.948,0,0,1-23.359,6.875,216.529,216.529,0,0,1-25.016,4.125A253.165,253.165,0,0,1,131.5,356ZM85.5,78V282H126a151.66,151.66,0,0,0,22.906-1.656,113.124,113.124,0,0,0,20.219-4.969,91.444,91.444,0,0,0,17.531-8.281A83.908,83.908,0,0,0,201.5,255.5a81.91,81.91,0,0,0,11.813-14.625A88.752,88.752,0,0,0,221.75,223.5a109.947,109.947,0,0,0,5.063-20.125,156.1,156.1,0,0,0,0-45.781,111.362,111.362,0,0,0-5.062-20.219,90.662,90.662,0,0,0-8.437-17.531,83.948,83.948,0,0,0-26.656-26.656,90.643,90.643,0,0,0-17.531-8.437,111.288,111.288,0,0,0-20.219-5.062A148.876,148.876,0,0,0,126,78Zm1588-5h-215V5h215V73Z" transform="translate(1368 -117.25)" stroke-miterlimit="10" stroke-width="1"/>
  </g>
</svg>
