<svg xmlns="http://www.w3.org/2000/svg" width="1em" height="1em" viewBox="0 0 514 514">
  <g id="Group_1" data-name="Group 1" transform="translate(0.776 640.537)" fill="#60a5fa">
    <path id="Path_1" data-name="Path 1" d="M0,0S78.68,86.813,157.236,86.813,314.224,0,314.224,0s-88.091,79.027-88.091,157.583,88.091,156.641,88.091,156.641-78.432-86.866-156.988-86.866S0,314.224,0,314.224s86.964-78.085,86.964-156.641S0,0,0,0Z" transform="translate(98.973 -541.089)"/>
    <path id="Union_1" data-name="Union 1" d="M79.847,197.968a99.456,99.456,0,0,1-35.758-15.047,100.291,100.291,0,0,1-36.231-44,99.471,99.471,0,0,1-5.827-18.771,100.975,100.975,0,0,1,0-40.307A99.462,99.462,0,0,1,17.078,44.089a100.293,100.293,0,0,1,44-36.23A99.488,99.488,0,0,1,79.847,2.032a100.83,100.83,0,0,1,46.316,1.426V15.58a88.365,88.365,0,0,0-69.384,7.356L100,100,17.654,67.918A88.356,88.356,0,0,0,143.221,177.064L100,100l82.346,32.082A88.506,88.506,0,0,0,185,75.775h12.048a100.089,100.089,0,0,1-117.2,122.193Z" transform="translate(-0.776 -326.537)"/>
    <path id="Union_4" data-name="Union 4" d="M79.847,197.968a99.456,99.456,0,0,1-35.758-15.047,100.291,100.291,0,0,1-36.231-44,99.471,99.471,0,0,1-5.827-18.771,100.975,100.975,0,0,1,0-40.307A99.462,99.462,0,0,1,17.078,44.089a100.293,100.293,0,0,1,44-36.23A99.488,99.488,0,0,1,79.847,2.032a100.83,100.83,0,0,1,46.316,1.426V15.58a88.365,88.365,0,0,0-69.384,7.356L100,100,17.654,67.918A88.356,88.356,0,0,0,143.221,177.064L100,100l82.346,32.082A88.506,88.506,0,0,0,185,75.775h12.048a100.089,100.089,0,0,1-117.2,122.193Z" transform="translate(313.224 -126.537) rotate(-90)"/>
    <path id="Union_2" data-name="Union 2" d="M79.847,197.968a99.456,99.456,0,0,1-35.758-15.047,100.291,100.291,0,0,1-36.231-44,99.471,99.471,0,0,1-5.827-18.771,100.975,100.975,0,0,1,0-40.307A99.462,99.462,0,0,1,17.078,44.089a100.293,100.293,0,0,1,44-36.23A99.488,99.488,0,0,1,79.847,2.032a100.83,100.83,0,0,1,46.316,1.426V15.58a88.365,88.365,0,0,0-69.384,7.356L100,100,17.654,67.918A88.356,88.356,0,0,0,143.221,177.064L100,100l82.346,32.082A88.506,88.506,0,0,0,185,75.775h12.048a100.089,100.089,0,0,1-117.2,122.193Z" transform="translate(199.224 -640.537) rotate(90)"/>
    <path id="Union_3" data-name="Union 3" d="M79.847,197.968a99.456,99.456,0,0,1-35.758-15.047,100.291,100.291,0,0,1-36.231-44,99.471,99.471,0,0,1-5.827-18.771,100.975,100.975,0,0,1,0-40.307A99.462,99.462,0,0,1,17.078,44.089a100.293,100.293,0,0,1,44-36.23A99.488,99.488,0,0,1,79.847,2.032a100.83,100.83,0,0,1,46.316,1.426V15.58a88.365,88.365,0,0,0-69.384,7.356L100,100,17.654,67.918A88.356,88.356,0,0,0,143.221,177.064L100,100l82.346,32.082A88.506,88.506,0,0,0,185,75.775h12.048a100.089,100.089,0,0,1-117.2,122.193Z" transform="translate(513.224 -440.537) rotate(180)"/>
  </g>
</svg>
