<svg xmlns="http://www.w3.org/2000/svg" width="2897" height="357.5" viewBox="0 0 2897 357.5">
  <path id="Subtraction_8" data-name="Subtraction 8" d="M855,527.5a221.177,221.177,0,0,1-25.3-1.422,194.383,194.383,0,0,1-23.891-4.266,178.394,178.394,0,0,1-22.484-7.11A172.481,172.481,0,0,1,743,492.265a159.7,159.7,0,0,1-31.749-31.624,170.316,170.316,0,0,1-23.978-44.133,180.362,180.362,0,0,1-7.489-27.008h88.889a94.427,94.427,0,0,0,8.409,19.146,85.007,85.007,0,0,0,12.168,16.1,83.646,83.646,0,0,0,14.36,11.923,86.264,86.264,0,0,0,16.828,8.515,102.173,102.173,0,0,0,19.3,5.109A133.583,133.583,0,0,0,861.5,452a111.524,111.524,0,0,0,15.141-1,92.208,92.208,0,0,0,13.922-3,81.263,81.263,0,0,0,12.7-5,77.747,77.747,0,0,0,11.484-7,80.028,80.028,0,0,0,10.141-8.875,84.345,84.345,0,0,0,8.672-10.625A105.055,105.055,0,0,0,946.5,390H838V327h186v79.5a161.229,161.229,0,0,1-12.813,30.874A178.739,178.739,0,0,1,991.75,466a161.245,161.245,0,0,1-25.812,24.875A184.23,184.23,0,0,1,934,510.5a160.276,160.276,0,0,1-18.062,7.438,169.714,169.714,0,0,1-19.187,5.313,186.981,186.981,0,0,1-20.313,3.188A212.616,212.616,0,0,1,855,527.5ZM2588.5,525H2498l-21-62H2346l-21,62h-89.5l127-351h99l127,351Zm-177-256.5h0l-43,128.5H2455l-43.5-128.5Zm395,256.5H2721V409l-10.081-19.5h105.663L2806.5,409V525Zm-1210,0H1511V242.5h-93V174h271.5v68.5h-93V525Zm-221,0H1290V380.5H1157V525h-85.5V174H1157V311.5h133V174h85.5V525Zm-747,0H543V174h85.5V525Zm-512,0H31V316.5H223.5V383h-107V525ZM2124,525H2020.5l-50.545-208.5h76.009l26.536,113,22.556-113h83.3L2124,525Zm-217.5,0H1803l-52.867-208.5h83.533L1856,429.5l27.642-113h75.209L1906.5,525ZM502,525H304.5V174H390V459H502v66ZM2848.637,327.5H2678.863L2599.5,174h97l68,147L2832,174h96l-79.363,153.5Zm-2084.091,0H677.018a191.883,191.883,0,0,1,7.33-37.374A172.585,172.585,0,0,1,711.234,237a159.68,159.68,0,0,1,31.625-31.749A170.337,170.337,0,0,1,782.969,182.8a176.737,176.737,0,0,1,22.406-7.11,193.275,193.275,0,0,1,23.844-4.266A220.77,220.77,0,0,1,854.5,170a233.553,233.553,0,0,1,30.266,1.906,191.508,191.508,0,0,1,27.8,5.719,166.116,166.116,0,0,1,25.328,9.531A155.419,155.419,0,0,1,960.75,200.5a146.777,146.777,0,0,1,19.8,16.719,138.883,138.883,0,0,1,16.141,19.656,145.184,145.184,0,0,1,12.485,22.594A166.318,166.318,0,0,1,1018,285H923.5a63.954,63.954,0,0,0-27.25-26.751,78.52,78.52,0,0,0-19.312-6.937A104.092,104.092,0,0,0,854.5,249a110.363,110.363,0,0,0-19.718,1.7,88.446,88.446,0,0,0-17.656,5.109,79.936,79.936,0,0,0-15.593,8.515A83.6,83.6,0,0,0,788,276.25a87.983,87.983,0,0,0-8.51,10.881,89.875,89.875,0,0,0-6.745,12.168,105.944,105.944,0,0,0-8.2,28.2ZM259.5,242.5H31V174H259.5v68.5Zm1938.144,0h-87.817L2123.5,174h92l-17.856,68.5Zm-169.058,0H1901.744L1918.5,174h94Zm-209.547,0h-87.67L1714,174h91.5Z" transform="translate(-31 -170)"/>
</svg>
